<svg xmlns="http://www.w3.org/2000/svg" width="256" height="256" viewBox="0 0 100 100"><rect width="100" height="100" rx="20" fill="#000000"></rect><path fill="#fff" d="M15.80 22.48Q44.68 22.48 44.68 50L44.68 50Q44.68 77.52 15.80 77.52L15.80 77.52L-8.04 77.52L-8.04 22.48L15.80 22.48ZM9.64 35.68L9.64 64.32L15.48 64.32Q26.60 64.32 26.60 52.40L26.60 52.40L26.60 47.60Q26.60 35.68 15.48 35.68L15.48 35.68L9.64 35.68ZM106.44 39.36Q106.44 44.40 103.72 48.48Q101 52.56 95.80 54.48L95.80 54.48L108.04 77.52L88.20 77.52L78.44 57.44L71.88 57.44L71.88 77.52L54.20 77.52L54.20 22.48L87.88 22.48Q93.80 22.48 98 24.76Q102.20 27.04 104.32 30.92Q106.44 34.80 106.44 39.36L106.44 39.36ZM88.44 40.08Q88.44 37.92 87 36.48Q85.56 35.04 83.48 35.04L83.48 35.04L71.88 35.04L71.88 45.20L83.48 45.20Q85.56 45.20 87 43.72Q88.44 42.24 88.44 40.08L88.44 40.08Z"></path></svg>